<?xml version="1.0"?>
<svg width="1050" height="1050" xmlns="http://www.w3.org/2000/svg" xmlns:svg="http://www.w3.org/2000/svg" clip-rule="evenodd" fill-rule="evenodd" version="1.1">
 <g class="layer">
  <title>Layer 1</title>
  <g id="svg_1" transform="matrix(1 0 0 1 0 0)">
   <path d="m705.5,5.5c71.67,-0.17 143.33,0 215,0.5c23.66,3.32 36.83,16.82 39.5,40.5c0.67,211.67 0.67,423.33 0,635c-2.43,40.07 -13.1,77.74 -32,113c-3.75,5.84 -7.75,11.51 -12,17c-7.8,8.8 -15.97,17.3 -24.5,25.5c-55,46.33 -110,92.67 -165,139c-28.99,20.35 -60.66,35.35 -95,45c-49.13,13.06 -99.13,20.06 -150,21c-61.56,3.15 -122.56,-1.18 -183,-13c-49.22,-11.11 -93.55,-32.11 -133,-63c-44.64,-39.43 -70.81,-88.93 -78.5,-148.5c-2.57,-16.58 -4.23,-33.24 -5,-50c-0.67,-62 -0.67,-124 0,-186c0.5,-14.49 6,-26.66 16.5,-36.5c47.96,-39.62 95.63,-79.62 143,-120c6.05,-5.05 12.38,-9.72 19,-14c7.4,-3.02 15.07,-5.02 23,-6c63.67,-0.67 127.33,-0.67 191,0c11.18,1.5 21.68,5 31.5,10.5c0.33,-78.67 0.67,-157.33 1,-236c0.84,-13.5 6.34,-24.67 16.5,-33.5c51.33,-43.33 102.67,-86.67 154,-130c8.74,-5.34 18.07,-8.84 28,-10.5z" fill="#ffffff" id="svg_2"/>
  </g>
  <g id="svg_3">
   <path d="m716.5,18.5c62.83,-1.17 125.83,-1.33 189,-0.5c10.25,-0.46 19.59,2.04 28,7.5c-4.08,-1.2 -8.08,-2.7 -12,-4.5c-5.62,-1.05 -11.28,-1.72 -17,-2c-62.67,-0.5 -125.33,-0.67 -188,-0.5z" fill="#534af2" id="svg_4"/>
  </g>
  <g id="svg_5">
   <path d="m716.5,18.5c62.67,-0.17 125.33,0 188,0.5c5.72,0.28 11.38,0.95 17,2c3.92,1.8 7.92,3.3 12,4.5c10.9,9 15.56,20.66 14,35c0.47,206.67 -0.03,413.34 -1.5,620c-2.01,35.85 -10.84,69.85 -26.5,102c-0.61,0.89 -0.94,1.89 -1,3c-16.38,25.38 -37.38,46.05 -63,62c-1.11,0.06 -2.11,0.39 -3,1c-13.66,5.83 -27,12.17 -40,19c-6.78,2.93 -13.78,5.26 -21,7c-42.18,11.92 -85.18,19.09 -129,21.5c-22.67,1 -45.34,1.83 -68,2.5c-50.53,1.16 -100.53,-3.17 -150,-13c-19.33,-5.34 -38.67,-11 -58,-17c-42.28,-13.2 -76.45,-37.53 -102.5,-73c-2.51,-4.36 -5.01,-8.69 -7.5,-13c-13.94,-29.4 -22.1,-60.4 -24.5,-93c-1.46,-79.99 -1.96,-159.99 -1.5,-240c2.26,-19.6 13.26,-29.93 33,-31c63.33,-0.17 126.67,0 190,0.5c6.94,0.93 13.61,2.76 20,5.5c8.42,6.17 13.26,14.51 14.5,25c0.33,54 0.67,108 1,162c0.96,12.39 4.8,23.72 11.5,34c1.43,3.26 3.76,5.76 7,7.5c15.45,7.41 31.78,11.08 49,11c11.17,0.83 22.17,0.66 33,-0.5c16.16,-0.2 31.49,-4.04 46,-11.5c9.62,-8.74 15.45,-19.57 17.5,-32.5c1.32,-190.31 1.99,-380.64 2,-571c1.74,-15.07 9.91,-24.57 24.5,-28.5c5.6,-1.22 11.27,-1.72 17,-1.5z" fill="#7b3aed" id="svg_6"/>
  </g>
  <g id="svg_7">
   <path d="m947.5,60.5c0.67,99 1,198.17 1,297.5c0.14,107.84 -0.36,215.67 -1.5,323.5c-1.75,26.74 -7.08,52.74 -16,78c-3.34,8.01 -7.17,15.67 -11.5,23c15.66,-32.15 24.49,-66.15 26.5,-102c1.47,-206.66 1.97,-413.33 1.5,-620z" fill="#534af2" id="svg_8"/>
  </g>
  <g id="svg_9">
   <path d="m815.5,645.5c-3.26,44.02 -21.93,79.85 -56,107.5c-27.18,17.06 -56.85,27.4 -89,31c-16.46,1.85 -32.79,3.35 -49,4.5c-36.52,0.89 -72.86,-1.27 -109,-6.5c-27.12,-4.76 -52.78,-13.59 -77,-26.5c-40.01,-25.33 -60.35,-62 -61,-110c0,-38 0,-76 0,-114c3.67,0 7.33,0 11,0c-0.33,37.5 0,74.84 1,112c2.17,20.5 8.17,39.83 18,58c17.64,31.19 43.98,51.36 79,60.5c30.45,8.18 61.45,12.35 93,12.5c39.88,2.35 79.55,-0.49 119,-8.5c6.21,-1.55 12.21,-3.38 18,-5.5c12.05,-3.46 23.39,-8.46 34,-15c15.44,-8.77 27.11,-21.11 35,-37c1.32,-2.64 2.65,-5.31 4,-8c11.72,-23.29 17.72,-47.96 18,-74c1,-166.5 1.33,-333.17 1,-500c3.33,0 6.67,0 10,0c0,173 0,346 0,519z" fill="#ffffff" id="svg_10"/>
  </g>
  <g id="svg_11">
   <path d="m816.5,645.5c0,-173.33 0,-346.67 0,-520c-4,0 -8,0 -12,0c0,167 0,334 0,501c-0.28,26.04 -6.28,50.71 -18,74c5.79,-13.54 10.29,-27.54 13.5,-42c1.84,-10.92 2.84,-21.92 3,-33c0.5,-167 0.67,-334 0.5,-501c4.67,0 9.33,0 14,0c0.33,173.83 0,347.5 -1,521z" fill="#534af2" id="svg_12"/>
  </g>
  <g id="svg_13">
   <path d="m816.5,645.5c-0.33,0 -0.67,0 -1,0c0,-173 0,-346 0,-519c-3.33,0 -6.67,0 -10,0c0.33,166.83 0,333.5 -1,500c0,-167 0,-334 0,-501c4,0 8,0 12,0c0,173.33 0,346.67 0,520z" fill="#29134f" id="svg_14"/>
  </g>
  <g id="svg_15">
   <path d="m283.5,418.5c63.5,-1.17 127.17,-1.33 191,-0.5c7,0.5 13.33,2.67 19,6.5c-6.39,-2.74 -13.06,-4.57 -20,-5.5c-63.33,-0.5 -126.67,-0.67 -190,-0.5z" fill="#534af2" id="svg_16"/>
  </g>
  <g id="svg_17">
   <path d="m250.5,449.5c-0.46,80.01 0.04,160.01 1.5,240c2.4,32.6 10.56,63.6 24.5,93c-11.02,-19.56 -18.19,-40.56 -21.5,-63c-1.74,-9.61 -3.08,-19.28 -4,-29c-1.13,-42.48 -1.63,-84.98 -1.5,-127.5c0,-38 0.33,-75.83 1,-113.5z" fill="#544af2" id="svg_18"/>
  </g>
  <g id="svg_19">
   <path d="m404.5,701.5c-9.83,-18.17 -15.83,-37.5 -18,-58c0,-37.67 0,-75.33 0,-113c-4.33,0 -8.67,0 -13,0c0,38.33 0,76.67 0,115c-1,-38.5 -1.33,-77.16 -1,-116c5,0 10,0 15,0c-0.17,37.67 0,75.34 0.5,113c2.16,20.64 7.66,40.31 16.5,59z" fill="#544af2" id="svg_20"/>
  </g>
  <g id="svg_21">
   <path d="m386.5,643.5c-1,-37.16 -1.33,-74.5 -1,-112c-3.67,0 -7.33,0 -11,0c0,38 0,76 0,114c-0.33,0 -0.67,0 -1,0c0,-38.33 0,-76.67 0,-115c4.33,0 8.67,0 13,0c0,37.67 0,75.33 0,113z" fill="#29134f" id="svg_22"/>
  </g>
  <g id="svg_23">
   <path d="m520.5,645.5c8.5,7.75 18.5,12.58 30,14.5c19.55,2.93 39.22,4.1 59,3.5c-10.83,1.16 -21.83,1.33 -33,0.5c-17.22,0.08 -33.55,-3.59 -49,-11c-3.24,-1.74 -5.57,-4.24 -7,-7.5z" fill="#5749f2" id="svg_24"/>
  </g>
  <g id="svg_25">
   <path d="m782.5,708.5c-7.89,15.89 -19.56,28.23 -35,37c14.09,-10.09 25.75,-22.42 35,-37z" fill="#180e2d" id="svg_26"/>
  </g>
  <g id="svg_27">
   <path d="m713.5,760.5c-5.79,2.12 -11.79,3.95 -18,5.5c-39.45,8.01 -79.12,10.85 -119,8.5c46.38,1.84 92.04,-2.82 137,-14z" fill="#554af2" id="svg_28"/>
  </g>
  <g id="svg_29">
   <path d="m435.5,755.5c24.22,12.91 49.88,21.74 77,26.5c36.14,5.23 72.48,7.39 109,6.5c-44.68,2.75 -89.01,-0.75 -133,-10.5c-18.11,-4.89 -35.44,-11.72 -52,-20.5c-0.8,-0.46 -1.13,-1.12 -1,-2z" fill="#564af2" id="svg_30"/>
  </g>
  <g id="svg_31">
   <path d="m918.5,785.5c-11.83,21.34 -27.83,39.18 -48,53.5c-4.77,3.38 -9.77,6.22 -15,8.5c25.62,-15.95 46.62,-36.62 63,-62z" fill="#190e2d" id="svg_32"/>
  </g>
  <g id="svg_33">
   <path d="m852.5,848.5c-12.78,7.39 -26.11,13.72 -40,19c13,-6.83 26.34,-13.17 40,-19z" fill="#5d47f1" id="svg_34"/>
  </g>
  <g id="svg_35">
   <path d="m386.5,868.5c19.33,6 38.67,11.66 58,17c-19.97,-3.82 -39.3,-9.49 -58,-17z" fill="#5c48f1" id="svg_36"/>
  </g>
  <g id="svg_37">
   <path d="m791.5,874.5c-24.95,8.39 -50.62,14.22 -77,17.5c-40.03,5.25 -80.03,7.42 -120,6.5c22.66,-0.67 45.33,-1.5 68,-2.5c43.82,-2.41 86.82,-9.58 129,-21.5z" fill="#554af2" id="svg_38"/>
  </g>
 </g>
</svg>