<?xml version="1.0" encoding="UTF-8"?>
<svg xmlns="http://www.w3.org/2000/svg" version="1.1" width="1050px" height="1050px" style="shape-rendering:geometricPrecision; text-rendering:geometricPrecision; image-rendering:optimizeQuality; fill-rule:evenodd; clip-rule:evenodd" xmlns:xlink="http://www.w3.org/1999/xlink">
<g><path style="opacity:1" fill="#000001" d="M 705.5,5.5 C 777.167,5.33334 848.834,5.5 920.5,6C 944.158,9.32407 957.325,22.8241 960,46.5C 960.667,258.167 960.667,469.833 960,681.5C 957.567,721.572 946.901,759.239 928,794.5C 924.246,800.342 920.246,806.009 916,811.5C 908.198,820.303 900.031,828.803 891.5,837C 836.5,883.333 781.5,929.667 726.5,976C 697.51,996.346 665.843,1011.35 631.5,1021C 582.369,1034.06 532.369,1041.06 481.5,1042C 419.943,1045.15 358.943,1040.82 298.5,1029C 249.284,1017.89 204.95,996.888 165.5,966C 120.861,926.569 94.6945,877.069 87,817.5C 84.4325,800.924 82.7658,784.257 82,767.5C 81.3333,705.5 81.3333,643.5 82,581.5C 82.4977,567.009 87.9977,554.843 98.5,545C 146.459,505.376 194.126,465.376 241.5,425C 247.552,419.947 253.885,415.281 260.5,411C 267.903,407.977 275.569,405.977 283.5,405C 347.167,404.333 410.833,404.333 474.5,405C 485.683,406.505 496.183,410.005 506,415.5C 506.333,336.833 506.667,258.167 507,179.5C 507.836,165.996 513.336,154.829 523.5,146C 574.833,102.667 626.167,59.3333 677.5,16C 686.24,10.6587 695.573,7.15873 705.5,5.5 Z"/></g>
<g><path style="opacity:1" fill="#534af2" d="M 716.5,18.5 C 779.332,17.3347 842.332,17.168 905.5,18C 915.755,17.543 925.088,20.043 933.5,25.5C 929.422,24.2981 925.422,22.7981 921.5,21C 915.883,19.9484 910.216,19.2818 904.5,19C 841.834,18.5 779.168,18.3333 716.5,18.5 Z"/></g>
<g><path style="opacity:1" fill="#7b3aed" d="M 716.5,18.5 C 779.168,18.3333 841.834,18.5 904.5,19C 910.216,19.2818 915.883,19.9484 921.5,21C 925.422,22.7981 929.422,24.2981 933.5,25.5C 944.397,34.4955 949.063,46.1622 947.5,60.5C 947.971,267.174 947.471,473.841 946,680.5C 943.991,716.346 935.158,750.346 919.5,782.5C 918.89,783.391 918.557,784.391 918.5,785.5C 902.121,810.879 881.121,831.546 855.5,847.5C 854.391,847.557 853.391,847.89 852.5,848.5C 838.835,854.334 825.502,860.668 812.5,867.5C 805.715,870.428 798.715,872.762 791.5,874.5C 749.319,886.419 706.319,893.586 662.5,896C 639.825,897 617.159,897.833 594.5,898.5C 543.968,899.665 493.968,895.331 444.5,885.5C 425.168,880.163 405.835,874.496 386.5,868.5C 344.22,855.301 310.054,830.968 284,795.5C 281.488,791.139 278.988,786.806 276.5,782.5C 262.565,753.097 254.398,722.097 252,689.5C 250.541,609.515 250.041,529.515 250.5,449.5C 252.765,429.902 263.765,419.569 283.5,418.5C 346.834,418.333 410.168,418.5 473.5,419C 480.445,419.928 487.112,421.761 493.5,424.5C 501.924,430.674 506.758,439.007 508,449.5C 508.333,503.5 508.667,557.5 509,611.5C 509.962,623.888 513.796,635.222 520.5,645.5C 521.927,648.764 524.261,651.264 527.5,653C 542.951,660.411 559.284,664.077 576.5,664C 587.674,664.826 598.674,664.659 609.5,663.5C 625.66,663.298 640.994,659.464 655.5,652C 665.12,643.262 670.954,632.429 673,619.5C 674.324,429.189 674.991,238.855 675,48.5C 676.743,33.4272 684.909,23.9272 699.5,20C 705.101,18.7832 710.768,18.2832 716.5,18.5 Z"/></g>
<g><path style="opacity:1" fill="#534af2" d="M 947.5,60.5 C 948.167,159.499 948.5,258.666 948.5,358C 948.638,465.841 948.138,573.675 947,681.5C 945.251,708.244 939.918,734.244 931,759.5C 927.664,767.506 923.83,775.173 919.5,782.5C 935.158,750.346 943.991,716.346 946,680.5C 947.471,473.841 947.971,267.174 947.5,60.5 Z"/></g>
<g><path style="opacity:1" fill="#050209" d="M 815.5,645.5 C 812.238,689.516 793.572,725.349 759.5,753C 732.316,770.063 702.65,780.396 670.5,784C 654.042,785.845 637.709,787.345 621.5,788.5C 584.976,789.394 548.643,787.227 512.5,782C 485.385,777.24 459.719,768.407 435.5,755.5C 395.486,730.171 375.153,693.504 374.5,645.5C 374.5,607.5 374.5,569.5 374.5,531.5C 378.167,531.5 381.833,531.5 385.5,531.5C 385.168,569.004 385.502,606.337 386.5,643.5C 388.665,663.997 394.665,683.331 404.5,701.5C 422.145,732.693 448.478,752.86 483.5,762C 513.95,770.181 544.95,774.348 576.5,774.5C 616.381,776.848 656.048,774.015 695.5,766C 701.711,764.454 707.711,762.62 713.5,760.5C 725.555,757.041 736.888,752.041 747.5,745.5C 762.939,736.728 774.605,724.395 782.5,708.5C 783.82,705.86 785.153,703.193 786.5,700.5C 798.224,677.21 804.224,652.544 804.5,626.5C 805.5,460.001 805.833,293.334 805.5,126.5C 808.833,126.5 812.167,126.5 815.5,126.5C 815.5,299.5 815.5,472.5 815.5,645.5 Z"/></g>
<g><path style="opacity:1" fill="#534af2" d="M 816.5,645.5 C 816.5,472.167 816.5,298.833 816.5,125.5C 812.5,125.5 808.5,125.5 804.5,125.5C 804.5,292.5 804.5,459.5 804.5,626.5C 804.224,652.544 798.224,677.21 786.5,700.5C 792.291,686.959 796.791,672.959 800,658.5C 801.838,647.579 802.838,636.579 803,625.5C 803.5,458.5 803.667,291.5 803.5,124.5C 808.167,124.5 812.833,124.5 817.5,124.5C 817.833,298.334 817.5,472.001 816.5,645.5 Z"/></g>
<g><path style="opacity:1" fill="#29134f" d="M 816.5,645.5 C 816.167,645.5 815.833,645.5 815.5,645.5C 815.5,472.5 815.5,299.5 815.5,126.5C 812.167,126.5 808.833,126.5 805.5,126.5C 805.833,293.334 805.5,460.001 804.5,626.5C 804.5,459.5 804.5,292.5 804.5,125.5C 808.5,125.5 812.5,125.5 816.5,125.5C 816.5,298.833 816.5,472.167 816.5,645.5 Z"/></g>
<g><path style="opacity:1" fill="#534af2" d="M 283.5,418.5 C 346.999,417.335 410.665,417.168 474.5,418C 481.502,418.5 487.835,420.666 493.5,424.5C 487.112,421.761 480.445,419.928 473.5,419C 410.168,418.5 346.834,418.333 283.5,418.5 Z"/></g>
<g><path style="opacity:1" fill="#544af2" d="M 250.5,449.5 C 250.041,529.515 250.541,609.515 252,689.5C 254.398,722.097 262.565,753.097 276.5,782.5C 265.479,762.938 258.312,741.938 255,719.5C 253.257,709.89 251.924,700.224 251,690.5C 249.874,648.016 249.374,605.516 249.5,563C 249.5,524.999 249.833,487.165 250.5,449.5 Z"/></g>
<g><path style="opacity:1" fill="#544af2" d="M 404.5,701.5 C 394.665,683.331 388.665,663.997 386.5,643.5C 386.5,605.833 386.5,568.167 386.5,530.5C 382.167,530.5 377.833,530.5 373.5,530.5C 373.5,568.833 373.5,607.167 373.5,645.5C 372.501,607.004 372.168,568.337 372.5,529.5C 377.5,529.5 382.5,529.5 387.5,529.5C 387.333,567.168 387.5,604.835 388,642.5C 390.16,663.14 395.66,682.806 404.5,701.5 Z"/></g>
<g><path style="opacity:1" fill="#29134f" d="M 386.5,643.5 C 385.502,606.337 385.168,569.004 385.5,531.5C 381.833,531.5 378.167,531.5 374.5,531.5C 374.5,569.5 374.5,607.5 374.5,645.5C 374.167,645.5 373.833,645.5 373.5,645.5C 373.5,607.167 373.5,568.833 373.5,530.5C 377.833,530.5 382.167,530.5 386.5,530.5C 386.5,568.167 386.5,605.833 386.5,643.5 Z"/></g>
<g><path style="opacity:1" fill="#5749f2" d="M 520.5,645.5 C 528.995,653.246 538.995,658.079 550.5,660C 570.055,662.934 589.722,664.101 609.5,663.5C 598.674,664.659 587.674,664.826 576.5,664C 559.284,664.077 542.951,660.411 527.5,653C 524.261,651.264 521.927,648.764 520.5,645.5 Z"/></g>
<g><path style="opacity:1" fill="#180e2d" d="M 782.5,708.5 C 774.605,724.395 762.939,736.728 747.5,745.5C 761.587,735.414 773.254,723.081 782.5,708.5 Z"/></g>
<g><path style="opacity:1" fill="#554af2" d="M 713.5,760.5 C 707.711,762.62 701.711,764.454 695.5,766C 656.048,774.015 616.381,776.848 576.5,774.5C 622.878,776.344 668.544,771.677 713.5,760.5 Z"/></g>
<g><path style="opacity:1" fill="#564af2" d="M 435.5,755.5 C 459.719,768.407 485.385,777.24 512.5,782C 548.643,787.227 584.976,789.394 621.5,788.5C 576.82,791.25 532.487,787.75 488.5,778C 470.393,773.112 453.059,766.279 436.5,757.5C 435.702,757.043 435.369,756.376 435.5,755.5 Z"/></g>
<g><path style="opacity:1" fill="#190e2d" d="M 918.5,785.5 C 906.67,806.843 890.67,824.677 870.5,839C 865.727,842.383 860.727,845.216 855.5,847.5C 881.121,831.546 902.121,810.879 918.5,785.5 Z"/></g>
<g><path style="opacity:1" fill="#5d47f1" d="M 852.5,848.5 C 839.721,855.888 826.388,862.222 812.5,867.5C 825.502,860.668 838.835,854.334 852.5,848.5 Z"/></g>
<g><path style="opacity:1" fill="#5c48f1" d="M 386.5,868.5 C 405.835,874.496 425.168,880.163 444.5,885.5C 424.53,881.678 405.196,876.011 386.5,868.5 Z"/></g>
<g><path style="opacity:1" fill="#554af2" d="M 791.5,874.5 C 766.546,882.889 740.879,888.722 714.5,892C 674.467,897.254 634.467,899.42 594.5,898.5C 617.159,897.833 639.825,897 662.5,896C 706.319,893.586 749.319,886.419 791.5,874.5 Z"/></g>
</svg>