<svg version="1.2" xmlns="http://www.w3.org/2000/svg" viewBox="0 0 128 128" width="128" height="128">
	<title>tailwindcss-original-wordmark-svg</title>
	<style>
		.s0 { fill: #38bdf8 } 
		.s1 { fill: #38bdf8 } 
	</style>
	<path id="Layer" class="s0" d="m64 7c-17.1 0-27.7 8.6-31.9 25.7 6.4-8.6 13.9-11.8 22.3-9.6 4.9 1.2 8.4 4.7 12.3 8.7 6.3 6.4 13.5 13.8 29.4 13.8 17 0 27.7-8.6 31.9-25.6-6.4 8.5-13.9 11.7-22.4 9.5-4.8-1.2-8.3-4.7-12.2-8.7-6.3-6.4-13.5-13.8-29.4-13.8zm-32 38.4c-17.1 0-27.8 8.5-32 25.6 6.4-8.6 13.9-11.7 22.4-9.6 4.8 1.3 8.3 4.8 12.2 8.8 6.3 6.4 13.5 13.8 29.4 13.8 17.1 0 27.7-8.6 31.9-25.7-6.4 8.6-13.9 11.7-22.3 9.6-4.9-1.3-8.4-4.8-12.3-8.7-6.1-6.5-13.4-13.8-29.3-13.8z"/>
	<path id="Layer" fill-rule="evenodd" class="s1" d="m5.1 117.4v6.1c0 1.6 1 1.6 3.1 1.5v2.4c-4.2 0.5-5.9-0.6-5.9-3.9v-6.1h-2.3v-2.6h2.3v-3.4l2.7-0.8v4.2h3.1v2.6zm15.1-2.6h2.7v12.6h-2.7v-1.8c-1 1.3-2.4 2.1-4.4 2.1-3.4 0-6.3-2.9-6.3-6.6 0-3.8 2.9-6.7 6.3-6.7 2 0 3.4 0.8 4.4 2.2zm0 6.3c0-2.3-1.8-4.1-4-4.1-2.2 0-4 1.8-4 4.1 0 2.2 1.8 4 4 4 2.2 0 4-1.8 4-4zm7.3-8.2c-1 0-1.8-0.8-1.8-1.8 0-0.9 0.8-1.7 1.8-1.7 0.9 0 1.7 0.8 1.7 1.7 0 1-0.8 1.8-1.7 1.8zm-1.4 1.9h2.7v12.6h-2.7zm5.9-5.8h2.7v18.4h-2.7zm20.4 5.8h2.9l-4 12.6h-2.6l-2.7-8.5-2.6 8.5h-2.7l-3.9-12.6h2.8l2.5 8.7 2.6-8.7h2.6l2.6 8.7zm6.3-1.9c-1 0-1.8-0.8-1.8-1.7 0-1 0.8-1.7 1.8-1.7 0.9 0 1.7 0.7 1.7 1.7 0 0.9-0.8 1.7-1.7 1.7zm-1.4 1.9h2.7v12.6h-2.7zm12.5-0.3c2.9 0 4.9 1.9 4.9 5.2v7.7h-2.7v-7.4c0-2-1.1-2.9-2.8-2.9-1.8 0-3.3 1-3.3 3.6v6.8h-2.7v-12.6h2.7v1.6c0.9-1.4 2.2-2 3.9-2zm17.8-4.7h2.8v17.6h-2.8v-1.8c-0.9 1.3-2.4 2.2-4.4 2.2-3.4 0-6.2-3-6.2-6.7 0-3.8 2.8-6.6 6.2-6.6 2 0 3.5 0.8 4.4 2.1zm0 11.3c0-2.2-1.7-4-4-4-2.2 0-4 1.8-4 4 0 2.3 1.8 4.1 4 4.1 2.3 0 4-1.8 4-4.1zm11.9 6.7c-3.8 0-6.7-2.9-6.7-6.6 0-3.8 2.8-6.7 6.7-6.7 2.5 0 4.6 1.3 5.6 3.3l-2.3 1.3c-0.6-1.2-1.8-1.9-3.4-1.9-2.2 0-3.9 1.7-3.9 4 0 2.2 1.7 3.9 3.9 3.9 1.6 0 2.8-0.8 3.4-1.9l2.3 1.3c-1 2-3.1 3.3-5.6 3.3zm10.2-9.5c0 2.3 6.8 0.9 6.8 5.6 0 2.5-2.2 3.9-4.9 3.9-2.6 0-4.4-1.2-5.2-3l2.3-1.3c0.4 1.1 1.5 1.8 2.9 1.8 1.2 0 2.1-0.4 2.1-1.4 0-2.2-6.8-1-6.8-5.5 0-2.4 2-3.9 4.6-3.9 2.1 0 3.8 1 4.7 2.6l-2.3 1.3c-0.5-0.9-1.3-1.4-2.4-1.4-1 0-1.8 0.4-1.8 1.3zm11.6 0c0 2.3 6.8 0.9 6.8 5.6 0 2.5-2.2 3.9-4.9 3.9-2.5 0-4.4-1.2-5.2-3l2.4-1.3c0.4 1.1 1.4 1.8 2.8 1.8 1.2 0 2.1-0.4 2.1-1.4 0-2.2-6.8-1-6.8-5.5 0-2.4 2.1-3.9 4.7-3.9 2 0 3.7 1 4.6 2.6l-2.3 1.3c-0.4-0.9-1.3-1.4-2.3-1.4-1 0-1.9 0.4-1.9 1.3z"/>
</svg>